<?xml version="1.0" encoding="UTF-8" standalone="no"?>
<!-- Created with Inkscape (http://www.inkscape.org/) -->

<svg
   version="1.1"
   id="svg2"
   width="1866.6667"
   height="1866.6667"
   viewBox="0 0 1866.6667 1866.6667"
   sodipodi:docname="411648-Character_illustration_of_people_with_vote_icons.eps"
   xmlns:inkscape="http://www.inkscape.org/namespaces/inkscape"
   xmlns:sodipodi="http://sodipodi.sourceforge.net/DTD/sodipodi-0.dtd"
   xmlns="http://www.w3.org/2000/svg"
   xmlns:svg="http://www.w3.org/2000/svg">
  <defs
     id="defs6" />
  <sodipodi:namedview
     id="namedview4"
     pagecolor="#ffffff"
     bordercolor="#000000"
     borderopacity="0.25"
     inkscape:showpageshadow="2"
     inkscape:pageopacity="0.0"
     inkscape:pagecheckerboard="0"
     inkscape:deskcolor="#d1d1d1" />
  <g
     id="g8"
     inkscape:groupmode="layer"
     inkscape:label="ink_ext_XXXXXX"
     transform="matrix(1.3333333,0,0,-1.3333333,0,1866.6667)">
    <g
       id="g10"
       transform="scale(0.1)">
      <path
         d="M 14000,0 H 0 V 14000 H 14000 V 0"
         style="fill:#ffffff;fill-opacity:1;fill-rule:nonzero;stroke:none"
         id="path12" />
      <path
         d="m 3705.18,1662.6 c 0,-46.9 -498.53,-85 -1113.5,-85 -614.97,0 -1113.5,38.1 -1113.5,85 0,47 498.53,85 1113.5,85 614.97,0 1113.5,-38 1113.5,-85"
         style="fill:#e7e7e6;fill-opacity:1;fill-rule:nonzero;stroke:none"
         id="path14" />
      <path
         d="m 6024.12,1661.8 c 0,-46.9 -498.54,-85 -1113.51,-85 -614.97,0 -1113.5,38.1 -1113.5,85 0,47 498.53,85.1 1113.5,85.1 614.97,0 1113.51,-38.1 1113.51,-85.1"
         style="fill:#e7e7e6;fill-opacity:1;fill-rule:nonzero;stroke:none"
         id="path16" />
      <path
         d="m 10758.1,1661.8 c 0,-46.9 -498.5,-85 -1113.45,-85 -614.97,0 -1113.51,38.1 -1113.51,85 0,47 498.54,85.1 1113.51,85.1 614.95,0 1113.45,-38.1 1113.45,-85.1"
         style="fill:#e7e7e6;fill-opacity:1;fill-rule:nonzero;stroke:none"
         id="path18" />
      <path
         d="m 13271.4,1661.8 c 0,-46.9 -498.5,-85 -1113.5,-85 -614.9,0 -1113.5,38.1 -1113.5,85 0,47 498.6,85.1 1113.5,85.1 615,0 1113.5,-38.1 1113.5,-85.1"
         style="fill:#e7e7e6;fill-opacity:1;fill-rule:nonzero;stroke:none"
         id="path20" />
      <path
         d="m 3102.47,2223.4 74.58,-293.2 168.01,-26.8 -63.42,370.8 -179.17,-50.8"
         style="fill:#d9b18f;fill-opacity:1;fill-rule:nonzero;stroke:none"
         id="path22" />
      <path
         d="m 2070.22,2204.6 24.07,-267.4 172.48,-62.8 -20.05,330.2 h -176.5"
         style="fill:#d9b18f;fill-opacity:1;fill-rule:nonzero;stroke:none"
         id="path24" />
      <path
         d="m 1751.76,5127.66 c 0,0 583.21,26.64 1182.23,-74.98 0,0 133.71,-1486.88 192.54,-1818.48 58.84,-331.6 198.85,-1118 198.85,-1118 0,0 -90.92,-85.6 -219.29,-42.8 0,0 -276.43,961.9 -340.61,1207.9 -64.18,246 -296.8,1189.74 -393.08,1189.74 -112.31,0 -106.97,-1081.74 -101.61,-1258.24 5.34,-176.5 2,-1110.6 2,-1110.6 0,0 -106.97,-60.2 -208.59,0 0,0 -130.37,934.1 -183.85,1303.2 -53.48,369 -128.59,1722.26 -128.59,1722.26"
         style="fill:#41474c;fill-opacity:1;fill-rule:nonzero;stroke:none"
         id="path26" />
      <path
         d="m 3223.76,1996.1 c 34.41,4.9 91.3,-1.4 128.74,-60.2 37.44,-58.8 97.61,-199.2 57.5,-244.7 -40.12,-45.5 -310.21,-66.9 -377.07,-21.4 -66.85,45.5 18.73,143.1 58.84,191.2 40.11,48.2 38.77,121.7 131.99,135.1"
         style="fill:#41474c;fill-opacity:1;fill-rule:nonzero;stroke:none"
         id="path28" />
      <path
         d="m 2059.52,1978 c 28.89,19.3 171.15,-15.7 208.59,-74.6 37.44,-58.8 41.21,-170.1 20.06,-212.2 -27.21,-54.2 -558.65,-60.7 -627.73,-18.6 -70.24,42.7 -34.66,103.4 44.08,134.9 88.15,35.3 199.48,49.2 228.64,64.9 82.24,44.1 78.72,73.7 126.36,105.6"
         style="fill:#41474c;fill-opacity:1;fill-rule:nonzero;stroke:none"
         id="path30" />
      <path
         d="m 1283.56,8731.75 0.24,1605.05 2264.3,-0.3 -0.24,-1605.09 -2264.3,0.34"
         style="fill:#ead4a4;fill-opacity:1;fill-rule:nonzero;stroke:none"
         id="path32" />
      <path
         d="m 1823.9,6973.59 c -127.1,142.04 -363.16,576.28 -453.85,796.73 -105.39,256.21 -34.18,725.54 -79.27,803.08 -64.08,110.2 -135.74,288.11 -50.34,323.24 50.46,20.76 182.3,-118.42 216.17,-167.24 98.91,-142.56 63.69,-487.05 163.25,-800.55 25.35,-79.85 225.11,-291.63 356.47,-397.05 L 1823.9,6973.59"
         style="fill:#d9b18f;fill-opacity:1;fill-rule:nonzero;stroke:none"
         id="path34" />
      <path
         d="m 3048.55,6973.59 c 127.1,142.04 363.16,576.28 453.84,796.73 105.4,256.21 34.19,725.54 79.28,803.08 64.08,110.2 66.32,362.79 -19.08,397.92 -50.46,20.76 -137.05,-190.04 -170.92,-238.86 -98.92,-142.56 -39.52,-490.11 -139.08,-803.61 -25.35,-79.85 -225.11,-291.63 -356.48,-397.05 l 152.44,-558.21"
         style="fill:#d9b18f;fill-opacity:1;fill-rule:nonzero;stroke:none"
         id="path36" />
      <path
         d="m 3279.23,7123.49 c -125.59,315.81 -327.35,487.83 -327.35,487.83 0,0 -306.7,-206.01 -392.95,-240.1 -86.24,-34.1 -248.06,-20.03 -317.74,15.74 -133.48,68.52 -359.38,236.67 -359.38,236.67 0,0 -259.52,-364.73 -299.63,-481.06 0,0 72.37,-147.69 177.64,-293.96 31.15,-43.28 -8.06,-634.04 -42.37,-1746.44 0,0 711.24,24.85 1245.68,-104.29 0,0 -8.28,901.4 53.08,1800.64 2.1,30.83 263.02,324.97 263.02,324.97"
         style="fill:#4f585b;fill-opacity:1;fill-rule:nonzero;stroke:none"
         id="path38" />
      <path
         d="m 2414.58,8019.55 c -107.91,7.75 -253.12,-6.67 -299.08,-288.71 -45.96,-282.03 -10.31,-586.3 253.83,-599.74 231.12,-11.76 339.13,247.54 352.75,544.77 9.94,216.91 -91.62,328.16 -307.5,343.68"
         style="fill:#d9b18f;fill-opacity:1;fill-rule:nonzero;stroke:none"
         id="path40" />
      <path
         d="m 2656.85,7576.87 c 0,0 71.12,126.41 165.6,60.79 107.54,-74.7 2.32,-249.9 -174.16,-228.87 l 8.56,168.08"
         style="fill:#d9b18f;fill-opacity:1;fill-rule:nonzero;stroke:none"
         id="path42" />
      <path
         d="m 2150.45,7629.54 c 0,0 -57.91,132.97 -158.57,77.29 -114.57,-63.38 -27.7,-248.36 150.01,-245.37 l 8.56,168.08"
         style="fill:#d9b18f;fill-opacity:1;fill-rule:nonzero;stroke:none"
         id="path44" />
      <path
         d="m 2113.87,7667.89 c 18.75,-35.94 20.55,156.23 80.16,209.67 59.61,53.44 139.78,67.83 252.84,53.44 113.05,-14.38 191.16,-41.11 222,-98.67 30.83,-57.55 4.11,-248.46 37,-241.39 32.88,7.06 37,105.73 28.77,181.78 -8.22,76.06 -26.72,235.37 -222,271.34 -161.92,29.83 -273.39,-18.5 -328.89,-82.22 -55.5,-63.72 -94.55,-246.67 -69.88,-293.95"
         style="fill:#b89275;fill-opacity:1;fill-rule:nonzero;stroke:none"
         id="path46" />
      <path
         d="m 10031.4,1952 160.5,6.5 -6,344.3 -187.03,-7.6 32.53,-343.2"
         style="fill:#fcdbba;fill-opacity:1;fill-rule:nonzero;stroke:none"
         id="path48" />
      <path
         d="m 10116.2,2004.2 c -45.9,0 -90,-17.2 -110.3,-65.1 -20.41,-47.8 -115.71,-131.8 -133.07,-182.9 -9.16,-27 -17.74,-84.8 36.77,-100.1 33.31,-9.4 85.25,-11.5 169.3,-11.5 76.8,0 126.2,1.6 147.7,24.8 41,44.3 6.5,129.1 1.7,162.6 -13.6,97.2 -22.1,172.2 -112.1,172.2"
         style="fill:#41444a;fill-opacity:1;fill-rule:nonzero;stroke:none"
         id="path50" />
      <path
         d="m 9210.53,1952 160.53,6.5 -5.97,344.3 -187.06,-7.6 32.5,-343.2"
         style="fill:#fcdbba;fill-opacity:1;fill-rule:nonzero;stroke:none"
         id="path52" />
      <path
         d="m 9295.32,2004.2 c -45.85,0 -74,-27.9 -110.29,-65.1 -111.91,-114.7 -247.35,-131.8 -264.71,-182.9 -9.16,-27 -17.74,-84.8 36.77,-100.1 33.32,-9.4 216.92,-11.5 300.97,-11.5 76.75,0 126.21,1.6 147.75,24.8 40.91,44.3 6.42,129.1 1.7,162.6 -13.67,97.2 -22.17,172.2 -112.19,172.2"
         style="fill:#41444a;fill-opacity:1;fill-rule:nonzero;stroke:none"
         id="path54" />
      <path
         d="m 8981.32,4947.75 c 0,0 14.02,-768.88 29.32,-1090.25 15.31,-321.3 126.23,-1709.9 126.23,-1709.9 0,0 141.55,-45.9 275.43,0 0,0 96.99,1984.72 123.76,2049.75 26.77,65.03 149.5,58.35 168.27,-6.68 18.77,-65.02 240.97,-2034.57 240.97,-2034.57 0,0 168.3,-65 279.3,0 0,0 26.8,2715.15 34.4,2784.01 7.7,68.86 -891.32,229.52 -1277.68,7.64"
         style="fill:#41474c;fill-opacity:1;fill-rule:nonzero;stroke:none"
         id="path56" />
      <path
         d="m 7646.95,6631.22 c 7.26,-24.36 240.88,-247.68 447.67,-468.1 129.76,-138.33 275.37,-163.18 330.18,-163.18 88.63,0 323.52,273.29 323.52,273.29 -53.55,52.54 -256.3,193.19 -256.3,193.19 -30.6,-28.7 -108.81,-96.52 -108.81,-96.52 -207.96,159.81 -620.71,428.05 -620.71,428.05 -34.42,28.69 -153.8,-38.32 -115.55,-166.73"
         style="fill:#fcdbba;fill-opacity:1;fill-rule:nonzero;stroke:none"
         id="path58" />
      <path
         d="m 9087.49,6870.65 c -46.06,-14.51 -203.77,-9.23 -330.57,-104.81 -103.06,-77.68 -318.77,-314.45 -318.77,-314.45 0,0 135.78,-216.27 367.18,-270.46 0,0 157.84,178.23 267.5,351.43 49,77.4 111.87,368.91 14.66,338.29"
         style="fill:#e9697b;fill-opacity:1;fill-rule:nonzero;stroke:none"
         id="path60" />
      <path
         d="m 9494.08,6954.79 c -80.56,-3.86 -311.59,-64.72 -485.7,-101.5 -143.44,-30.3 -27.06,-650.82 -27.06,-1058.86 0,-637.55 -19.29,-882.38 -9.08,-948.68 0,0 475.61,-116.03 888.75,-62.48 293.91,38.1 418.71,110.93 418.71,110.93 0,0 -39.5,908.52 -154.3,1413.47 -37.9,166.91 -99.2,483.44 -194.29,573.16 -57.27,54.07 -277.32,81.6 -437.03,73.96"
         style="fill:#e9697b;fill-opacity:1;fill-rule:nonzero;stroke:none"
         id="path62" />
      <path
         d="m 9521.33,7199.32 c 0,0 50.95,-183.35 77.65,-244.26 26.7,-60.91 -122.96,-143.73 -204.31,-150.56 -81.37,-6.83 -124.17,6.17 -131.96,66.88 -7.85,61.18 7.81,95.04 -19.6,204.32 -27.4,109.3 242.26,211.01 278.22,123.62"
         style="fill:#fcdbba;fill-opacity:1;fill-rule:nonzero;stroke:none"
         id="path64" />
      <path
         d="m 9599.78,7430 c -4.56,-81.92 -37.28,-228.53 -114.35,-321.6 -77.06,-93.06 -213.58,-133.53 -295.2,-133.53 -129.85,0 -220.64,114.28 -245.76,226.98 -25.12,112.7 -19.01,358.13 19.4,507.67 43.21,168.25 335.26,242.44 488.69,140.8 162.99,-107.98 157.03,-243.76 147.22,-420.32"
         style="fill:#fcdbba;fill-opacity:1;fill-rule:nonzero;stroke:none"
         id="path66" />
      <path
         d="m 9872.19,6912.52 c 148.11,-66.07 249.41,-299.47 322.11,-703.97 0,0 -218.01,-129.44 -495.24,-93.08 0,0 -44.72,431.07 -51.64,490 -18.18,154.77 52.62,383.83 224.77,307.05"
         style="fill:#e9697b;fill-opacity:1;fill-rule:nonzero;stroke:none"
         id="path68" />
      <path
         d="m 9961.21,6664.83 c 0,0 149.99,-272.13 214.19,-477.19 100.2,-320.21 -225.64,-357.28 -319.89,-173.24 -87.53,170.9 -67.13,551.12 -56.48,597.19 10.65,46.08 162.18,53.24 162.18,53.24"
         style="fill:#fcdbba;fill-opacity:1;fill-rule:nonzero;stroke:none"
         id="path70" />
      <path
         d="m 8955.32,7669.8 c 25.84,-4.17 7.36,78.31 166.42,79.44 97.73,0.7 272.44,4.8 334.04,-59.08 122.71,-127.25 80.43,-438.38 94.5,-470.45 5.06,-11.52 110.56,-24.54 173.65,18.05 69.95,47.24 114.36,136.42 138.49,268.6 41.03,224.7 -49.87,420.13 -222.58,547.39 -132.74,97.8 -428.21,189.25 -663.53,45.44 -163.62,-99.99 -245.42,-393.13 -20.99,-429.39"
         style="fill:#8d624d;fill-opacity:1;fill-rule:nonzero;stroke:none"
         id="path72" />
      <path
         d="m 9503.97,7414.63 c 30.76,108.24 136.86,117.69 182.34,44.12 48.07,-77.77 -48.49,-240.16 -144.29,-220.99 -67.2,13.45 -54.79,117.92 -38.05,176.87"
         style="fill:#fcdbba;fill-opacity:1;fill-rule:nonzero;stroke:none"
         id="path74" />
      <path
         d="m 7574.19,5099.89 0.24,1664.43 2348.02,-0.36 -0.25,-1664.42 -2348.01,0.35"
         style="fill:#92d8be;fill-opacity:1;fill-rule:nonzero;stroke:none"
         id="path76" />
      <path
         d="m 7750.18,6841.18 c -54.68,56.34 -209.43,7.47 -248.73,-30.67 -39.3,-38.15 -40.22,-93.21 -69.57,-148.13 -29.35,-54.92 62.21,-142.35 100.15,-169.56 17.2,-12.32 61.37,4.63 95.76,45.83 41.55,49.76 90.81,148.16 108.46,153.84 54.81,17.66 91.3,18.94 73.11,70.66 -17.25,49.09 -21.04,38.72 -59.18,78.03"
         style="fill:#fcdbba;fill-opacity:1;fill-rule:nonzero;stroke:none"
         id="path78" />
      <path
         d="m 9191.33,5467.75 h -136.77 c -25.37,0 -45.94,20.57 -45.94,45.94 v 530.54 c 0,25.37 20.57,45.94 45.94,45.94 h 136.77 c 25.38,0 45.94,-20.57 45.94,-45.94 v -530.54 c 0,-25.37 -20.56,-45.94 -45.94,-45.94"
         style="fill:#ffffff;fill-opacity:1;fill-rule:nonzero;stroke:none"
         id="path80" />
      <path
         d="m 9025.86,6062.54 c 0,0 -99.82,91.14 -195.09,135.6 -95.27,44.47 -237.49,207.27 -266.77,266.77 -32.81,66.69 -127.43,12.64 -117.5,-84.69 10.59,-103.74 106.92,-171.49 87.86,-184.19 -19.05,-12.71 -228.16,-7.03 -256.18,-52.93 -38.1,-62.46 10.23,-115.94 -2,-145.26 -23.4,-56.1 -25.9,-82.58 15.39,-133.39 41.28,-50.81 -3.46,-93.55 31.06,-182.91 19.68,-50.96 11.66,-109.03 46.6,-163.01 34.93,-54 349.33,-53.96 489.07,-25.41 139.74,28.54 150.32,57.16 150.32,57.16 l 17.24,512.26"
         style="fill:#ffffff;fill-opacity:1;fill-rule:nonzero;stroke:none"
         id="path82" />
      <path
         d="m 9998.85,6785.21 c -20.01,49.38 -121.26,81.05 -173.2,75.32 -51.93,-5.74 -131.81,-88.24 -147.22,-141.54 -15.42,-53.29 105.49,-175.28 154.53,-199.35 49.04,-24.07 94.41,-37.38 133.02,-9.8 38.62,27.59 91.82,129.82 32.87,275.37"
         style="fill:#fcdbba;fill-opacity:1;fill-rule:nonzero;stroke:none"
         id="path84" />
      <path
         d="m 11423.8,6852.27 c 0,0 -390.2,172.83 -447,294.4 -104.5,223.75 -122.3,826.09 -127.9,889.48 -5.6,63.39 -17.5,103.77 -74.6,193.58 -72.8,114.47 -116.1,210.11 -66.3,289.72 46.2,73.8 143.6,69.16 217.9,18.11 124.6,-85.66 220.3,-326.93 207.3,-387.61 -28.4,-131.69 58.1,-653.76 98.4,-717.05 40.4,-63.3 221.4,-155.57 237.3,-162.18 15.9,-6.6 76.6,-253.03 -45.1,-418.45"
         style="fill:#fcdbba;fill-opacity:1;fill-rule:nonzero;stroke:none"
         id="path86" />
      <path
         d="m 12219,6992.12 c -180.4,50.12 -671.4,247.62 -802.5,305.54 0,0 -187.4,-180.76 -147.4,-479.24 0,0 301,-158.79 486,-219.97 116.2,-38.43 230.6,-28.21 349.5,71.23 106,88.66 214.7,294.56 114.4,322.44"
         style="fill:#f7c169;fill-opacity:1;fill-rule:nonzero;stroke:none"
         id="path88" />
      <path
         d="m 12594.8,1954.4 161.8,6.5 -6,347 -188.5,-7.6 32.7,-345.9"
         style="fill:#fcdbba;fill-opacity:1;fill-rule:nonzero;stroke:none"
         id="path90" />
      <path
         d="m 11767.6,1954.4 161.8,6.5 -6,347 -188.5,-7.6 32.7,-345.9"
         style="fill:#fcdbba;fill-opacity:1;fill-rule:nonzero;stroke:none"
         id="path92" />
      <path
         d="m 11536.6,4973.44 c 0,0 14.2,-774.87 29.6,-1098.74 15.4,-323.8 127.2,-1723.2 127.2,-1723.2 0,0 142.6,-46.2 277.6,0 0,0 69.4,2012.38 96.3,2077.91 27,65.54 108.7,57.83 127.6,-7.71 18.9,-65.54 313.2,-2061.6 313.2,-2061.6 0,0 169.6,-65.5 281.4,0 0,0 27,2659.14 34.7,2728.53 7.7,69.39 -898.2,308.4 -1287.6,84.81"
         style="fill:#41444a;fill-opacity:1;fill-rule:nonzero;stroke:none"
         id="path94" />
      <path
         d="m 12313.7,6996.07 c 81.2,-3.89 374.3,-53.97 487.4,-149.06 113.1,-95.1 48.8,-817.27 46.3,-976.62 -2.6,-159.35 2.5,-932.93 -7.8,-999.75 0,0 -479.3,-116.94 -895.6,-62.96 -296.2,38.39 -417.7,145.2 -417.7,145.2 -28.2,107.94 81,909.74 142.3,1279.88 51.2,309.38 45.4,552.57 204.7,688.78 60.3,51.58 279.5,82.24 440.4,74.53"
         style="fill:#4f585b;fill-opacity:1;fill-rule:nonzero;stroke:none"
         id="path96" />
      <path
         d="m 12680.3,2007 c -46.2,0 -90.6,-17.4 -111.2,-65.6 -20.5,-48.2 -116.5,-132.8 -134,-184.4 -9.3,-27.2 -17.9,-85.4 37,-100.9 33.6,-9.4 85.9,-11.5 170.6,-11.5 77.4,0 127.2,1.6 148.9,25 41.3,44.6 6.5,130.1 1.8,163.9 -13.8,98 -22.4,173.5 -113.1,173.5"
         style="fill:#41444a;fill-opacity:1;fill-rule:nonzero;stroke:none"
         id="path98" />
      <path
         d="m 11853.1,2007 c -46.2,0 -74.6,-28.1 -111.2,-65.6 -112.8,-115.6 -249.2,-132.8 -266.7,-184.4 -9.3,-27.2 -17.9,-85.4 37,-100.9 33.6,-9.4 218.6,-11.5 303.3,-11.5 77.4,0 127.2,1.6 148.9,25 41.2,44.6 6.5,130.1 1.7,163.9 -13.7,98 -22.3,173.5 -113,173.5"
         style="fill:#41444a;fill-opacity:1;fill-rule:nonzero;stroke:none"
         id="path100" />
      <path
         d="m 13012.2,6057.69 c 0,0 53.6,-358.31 35.5,-450.84 -17.9,-91.81 -270.7,-620.44 -321.7,-727.35 -78.7,-164.69 -134.2,-295.83 -174.2,-328.49 -56.1,-45.75 -176.6,-11.44 -196.8,76.24 -13.4,58.51 21.9,78.28 52.7,195.28 30.8,116.99 102.6,143.86 133.1,191.76 30.6,47.89 125.9,512.79 170.4,622.78 25.9,63.92 -72.1,328.14 -67.1,377.53 4.9,49.38 283.9,155.24 368.1,43.09"
         style="fill:#fcdbba;fill-opacity:1;fill-rule:nonzero;stroke:none"
         id="path102" />
      <path
         d="m 12469.5,7168.27 c 0,0 -34.5,-133.78 -24.7,-200.09 9.7,-66.31 -100.3,-151.21 -181.2,-136.2 -80.9,15 -101,44.53 -105.3,106.07 -4.2,61.53 27.7,84.35 30.1,197.87 2.5,113.52 269.5,126.86 281.1,32.35"
         style="fill:#fcdbba;fill-opacity:1;fill-rule:nonzero;stroke:none"
         id="path104" />
      <path
         d="m 12675.2,7475.83 c -13.5,-81.58 -62.3,-224.88 -149.7,-309.7 -87.4,-84.81 -228.1,-101.52 -310.3,-101.52 -82.3,0 -205.6,71.97 -218.5,187.62 -12.8,115.65 17.1,427.51 72,573.12 61.7,163.84 362.3,206.25 505,87.65 151.4,-125.98 130.6,-261.37 101.5,-437.17"
         style="fill:#fcdbba;fill-opacity:1;fill-rule:nonzero;stroke:none"
         id="path106" />
      <path
         d="m 12569.9,7444.44 c 0,0 -13.6,37.81 -11.6,130.33 1.9,92.52 -27,221.67 -162,258.29 -134.9,36.62 -251.4,-30.35 -329.6,23.13 -181.7,124.45 -23.4,155 32.4,301.05 40.3,105.19 272.1,-53.69 429.2,-53.69 225.5,0 194.5,-183.2 339.5,-310.06 103.1,-90.17 -76.3,-440.38 -297.9,-349.05"
         style="fill:#d18352;fill-opacity:1;fill-rule:nonzero;stroke:none"
         id="path108" />
      <path
         d="m 12577.5,7470.89 c 42.7,105.08 150,102.96 187.5,24.28 39.7,-83.17 -40.2,-237.48 -134.1,-207.81 -65.8,20.81 -76.6,126.3 -53.4,183.53"
         style="fill:#fcdbba;fill-opacity:1;fill-rule:nonzero;stroke:none"
         id="path110" />
      <path
         d="m 12740.8,6885.94 c 127,-46.87 168.3,-229.25 191.4,-325.32 23.2,-96.05 112.3,-438.96 102.5,-514.75 0,0 -242.3,-164.61 -537.2,-103.68 0,0 -25,182.95 -72.9,371.82 -30.1,118.65 -15.3,326.55 68.7,456.83 53.1,82.44 145.5,152.75 247.5,115.1"
         style="fill:#f7c169;fill-opacity:1;fill-rule:nonzero;stroke:none"
         id="path112" />
      <path
         d="m 9776.17,8002.8 -346.8,1743.15 2459.03,489.25 346.8,-1743.17 -2459.03,-489.23"
         style="fill:#ead4a4;fill-opacity:1;fill-rule:nonzero;stroke:none"
         id="path114" />
      <path
         d="m 4425.35,7850.83 c 0,0 -76.06,-128.49 -56.29,-456.12 16.36,-271.1 -132.71,-482.89 -152.47,-590.19 -19.76,-107.29 514.86,-183.47 664.02,-129.81 149.16,53.64 137.36,12.16 207.73,129.81 70.39,117.66 -2.1,649.09 -4.93,786.23 -2.82,137.13 -296.24,455.63 -658.06,260.08"
         style="fill:#39393a;fill-opacity:1;fill-rule:nonzero;stroke:none"
         id="path116" />
      <path
         d="m 4466.74,2252.1 -24.33,-306.6 -163.82,-55.8 -0.2,382.6 188.35,-20.2"
         style="fill:#fde8d6;fill-opacity:1;fill-rule:nonzero;stroke:none"
         id="path118" />
      <path
         d="m 5293.12,2256.5 -9.41,-272.9 -171.72,-91.5 1.88,354.5 179.25,9.9"
         style="fill:#fde8d6;fill-opacity:1;fill-rule:nonzero;stroke:none"
         id="path120" />
      <path
         d="m 4393.84,1999.1 c -35,5 -92.86,-1.4 -130.93,-61.2 -38.09,-59.9 -99.28,-202.7 -58.49,-248.9 40.8,-46.3 315.51,-68 383.51,-21.8 68,46.3 -19.04,145.5 -59.84,194.5 -40.8,49 -39.43,123.8 -134.25,137.4"
         style="fill:#41474c;fill-opacity:1;fill-rule:nonzero;stroke:none"
         id="path122" />
      <path
         d="m 5315.45,2005.5 c -29.38,19.7 -174.07,-16 -212.15,-75.9 -38.08,-59.8 -41.91,-173 -20.4,-215.8 27.68,-55.1 568.2,-61.7 638.46,-19 71.44,43.5 35.25,105.3 -44.84,137.3 -89.65,35.8 -202.89,50 -232.55,65.9 -83.64,44.9 -80.05,75 -128.52,107.5"
         style="fill:#41474c;fill-opacity:1;fill-rule:nonzero;stroke:none"
         id="path124" />
      <path
         d="m 5468.7,4952.57 c 0,0 -14.03,-768.9 -29.33,-1090.27 -15.3,-321.3 -149.84,-1709.9 -149.84,-1709.9 0,0 -42.27,-45.9 -176.16,0 0,0 -172.64,1984.73 -199.42,2049.76 -26.78,65.03 -149.5,58.35 -168.27,-6.68 -18.77,-65.03 -287.63,-2052.98 -287.63,-2052.98 0,0 -68.72,-46.6 -179.66,18.4 0,0 -79.76,2715.16 -87.4,2784.01 -7.66,68.86 891.34,229.52 1277.71,7.66"
         style="fill:#41474c;fill-opacity:1;fill-rule:nonzero;stroke:none"
         id="path126" />
      <path
         d="m 4119.28,4920.1 c 0,0 -100.34,-518.33 -139.87,-1122.6 -7.03,-107.4 172.99,-38.7 276.33,-95.3 103.34,-56.6 295.54,-107.4 457.79,-106.1 218.73,1.8 453.45,25.7 605.97,0 203.78,-34.5 290.2,84.1 342.74,150.6 52.54,66.6 -139.95,1129.71 -193.54,1205.87 -53.61,76.15 -1349.42,-32.47 -1349.42,-32.47"
         style="fill:#92d8be;fill-opacity:1;fill-rule:nonzero;stroke:none"
         id="path128" />
      <path
         d="m 6338.4,7329.04 c 0,0 40.32,37.17 54.1,52.77 13.77,15.6 25.2,96.21 28.7,108.94 12.84,46.78 15.23,96.29 69.58,141.46 49.43,41.09 138.42,61.3 177.63,37.75 53.01,-31.83 70.49,-137.25 5.28,-238.33 -65.2,-101.09 -225.97,-198.14 -225.97,-198.14 l -48.66,-13.77 -74.72,74.28 14.06,35.04"
         style="fill:#fde8d6;fill-opacity:1;fill-rule:nonzero;stroke:none"
         id="path130" />
      <path
         d="m 4880.61,7007.22 c 0,0 188.54,71.95 414.66,37.48 154.58,-23.57 485.26,-132.15 563.42,-75.6 78.16,56.55 518.76,397.11 518.76,397.11 14.53,-72.01 84.05,-124.06 84.05,-124.06 -23.43,-50.93 -464.42,-536.24 -528.79,-580.83 -64.38,-44.59 -531.1,34.22 -740.13,94.94 -177.35,51.52 -311.97,250.96 -311.97,250.96"
         style="fill:#d8f2ea;fill-opacity:1;fill-rule:nonzero;stroke:none"
         id="path132" />
      <path
         d="m 4718.94,7087.6 c -80.27,9.5 -315.51,-48.96 -429.74,-125.11 -114.24,-76.16 -219.43,-314.26 -146.03,-912.08 62.43,-508.32 -22.61,-1137.26 -22.61,-1137.26 47.91,-90.49 1051.42,-336.42 1348.14,39.42 0,0 -167.24,677.45 -167.24,979.36 0,301.91 -87.67,737.76 -88.17,783.05 -1.32,116.48 -136.68,330.29 -494.35,372.62"
         style="fill:#92d8be;fill-opacity:1;fill-rule:nonzero;stroke:none"
         id="path134" />
      <path
         d="m 4697.03,7326.55 c 0,0 -59.44,-221.54 -80.09,-260.71 -20.64,-39.17 43.86,-166.93 158.53,-196.62 114.66,-29.7 214.46,34.67 184.78,147.61 -29.07,110.69 -36.1,233.77 -36.1,233.77 l -227.12,75.95"
         style="fill:#fde8d6;fill-opacity:1;fill-rule:nonzero;stroke:none"
         id="path136" />
      <path
         d="m 4874.25,7929.22 c 111.37,8.32 269.94,-57.1 316.94,-331.54 39.86,-232.77 3.12,-518.33 -269.45,-533.28 -238.51,-13.08 -350.21,238.66 -364.52,527.99 -10.45,211.15 94.26,320.21 317.03,336.83"
         style="fill:#fde8d6;fill-opacity:1;fill-rule:nonzero;stroke:none"
         id="path138" />
      <path
         d="m 5175.25,7669.14 c 0,0 -59.65,140.8 -179.93,142.32 -140.81,1.79 -343.96,-73.88 -369.45,-368.57 l -96.2,-62.33 c 0,0 -94.2,69.48 -129.88,214.15 -33.1,134.25 3.59,326.2 188.05,419.49 184.46,93.3 377.52,49.42 491.87,-78.28 132.88,-148.41 95.54,-266.78 95.54,-266.78"
         style="fill:#39393a;fill-opacity:1;fill-rule:nonzero;stroke:none"
         id="path140" />
      <path
         d="m 4625.45,7450.72 c -2.39,43.48 -24.77,84.2 -61.9,106.96 -28.55,17.5 -65.58,25.13 -107.01,-3.05 -107.8,-73.33 -1.75,-243.33 175.38,-221.88 l -6.47,117.97"
         style="fill:#fde8d6;fill-opacity:1;fill-rule:nonzero;stroke:none"
         id="path142" />
      <path
         d="m 5225.42,5089.89 -705.5,1536.68 2167.8,995.26 705.5,-1536.68 -2167.8,-995.26"
         style="fill:#ead4a4;fill-opacity:1;fill-rule:nonzero;stroke:none"
         id="path144" />
      <path
         d="m 5121.18,5706.73 c 0,0 49.46,-23.67 69.06,-30.69 19.59,-7.02 98.7,12.24 111.82,13.72 48.21,5.41 95.08,21.53 157.17,-12.21 56.48,-30.68 108.23,-105.85 100.89,-151 -9.93,-61.02 -101.36,-116.33 -219.41,-93.22 -118.05,23.1 -267.78,136.46 -267.78,136.46 l -30.81,40.09 41.31,96.93 37.75,-0.08"
         style="fill:#fde8d6;fill-opacity:1;fill-rule:nonzero;stroke:none"
         id="path146" />
      <path
         d="m 4289.2,6962.49 c -84.81,-74.89 -153.03,-199.34 -171.83,-327.63 -18.8,-128.29 55.99,-498.8 78.74,-594.13 22.75,-95.32 409.44,-373.03 893.5,-483.02 0,0 1.32,52.14 50.48,140.13 0,0 -551.61,387.32 -603.68,458.92 -36.05,49.55 -9.1,295.19 -42.92,506.65 -17.06,106.67 -113.41,379.34 -204.29,299.08"
         style="fill:#d8f2ea;fill-opacity:1;fill-rule:nonzero;stroke:none"
         id="path148" />
      <g
         id="g150"
         transform="scale(10)">
        <text
           xml:space="preserve"
           transform="matrix(1,0,0,-1,153.799,935.188)"
           style="font-variant:normal;font-weight:normal;font-size:62.8829px;font-family:SuezOne;-inkscape-font-specification:SuezOne-Regular;writing-mode:lr-tb;fill:#100f0d;fill-opacity:1;fill-rule:nonzero;stroke:none"
           id="text154"><tspan
             x="0 43.577606 88.663994 132.61861 171.7939"
             y="0"
             sodipodi:role="line"
             id="tspan152">VOTE </tspan></text>
        <text
           xml:space="preserve"
           transform="matrix(0.90758,0.41988,0.41988,-0.90758,518.008,583.602)"
           style="font-variant:normal;font-weight:normal;font-size:62.883px;font-family:SuezOne;-inkscape-font-specification:SuezOne-Regular;writing-mode:lr-tb;fill:#100f0d;fill-opacity:1;fill-rule:nonzero;stroke:none"
           id="text158"><tspan
             x="0 43.577351 88.664146 132.61938 171.79474"
             y="0"
             sodipodi:role="line"
             id="tspan156">VOTE </tspan></text>
        <text
           xml:space="preserve"
           transform="matrix(0.979959,0.199197,0.199197,-0.979959,1002.98,873.365)"
           style="font-variant:normal;font-weight:normal;font-size:62.8829px;font-family:SuezOne;-inkscape-font-specification:SuezOne-Regular;writing-mode:lr-tb;fill:#100f0d;fill-opacity:1;fill-rule:nonzero;stroke:none"
           id="text162"><tspan
             x="0 43.577419 88.663536 132.61867 171.79333"
             y="0"
             sodipodi:role="line"
             id="tspan160">VOTE </tspan></text>
      </g>
    </g>
  </g>
</svg>
